<?xml version="1.0" encoding="utf-8"?>
<!-- Generator: Adobe Illustrator 16.0.0, SVG Export Plug-In . SVG Version: 6.00 Build 0)  -->
<!DOCTYPE svg PUBLIC "-//W3C//DTD SVG 1.1//EN" "http://www.w3.org/Graphics/SVG/1.1/DTD/svg11.dtd">
<svg version="1.1" xmlns="http://www.w3.org/2000/svg" xmlns:xlink="http://www.w3.org/1999/xlink" x="0px" y="0px" width="50px"
	 height="50px" viewBox="0 0 2000 2000" enable-background="new 0 0 2000 2000" xml:space="preserve">
<g id="Layer_1">
	<path fill="#FF5752" d="M951.473,1978.363c-27.598-30.734-675.797-758.383-675.797-1254.043C275.68,324.93,600.609,0,1000.004,0
		s724.32,324.93,724.32,724.32c0,495.656-648.199,1223.309-675.797,1254.043C1022.602,2007.242,977.34,2007.184,951.473,1978.363z"
		/>
	<path fill="#FF5752" d="M1724.32,724.32C1724.32,324.93,1399.391,0,1000.004,0v2000c17.781,0,35.57-7.199,48.527-21.637
		C1076.121,1947.633,1724.32,1219.98,1724.32,724.32z"/>
	<path fill="#FFFFFF" d="M1000.004,1392.746c-368.572,0-668.412-299.854-668.412-668.426c0-368.571,299.854-668.426,668.412-668.426
		s668.411,299.854,668.411,668.426C1668.415,1092.893,1368.562,1392.746,1000.004,1392.746z"/>
</g>
<g id="hotel" display="none">
	<g transform="translate(1 1)" display="inline">
		<g>
			<g>
				<path fill="#FF5752" d="M1459.383,377.703h-47.619V361.83c0-9.524-6.35-15.873-15.873-15.873
					c-9.524,0-15.873,6.349-15.873,15.873v15.873h-63.494V361.83c0-9.524-6.35-15.873-15.873-15.873
					c-9.524,0-15.873,6.349-15.873,15.873v15.873h-63.494V234.84c0-9.524-6.35-15.873-15.873-15.873h-142.863v-15.873
					c0-9.523-6.349-15.873-15.873-15.873c-9.523,0-15.872,6.349-15.872,15.873v15.873h-63.495v-15.873
					c0-9.523-6.349-15.873-15.872-15.873c-9.524,0-15.873,6.349-15.873,15.873v15.873H792.699c-9.524,0-15.873,6.349-15.873,15.873
					v142.863h-63.502V361.83c0-9.524-6.349-15.873-15.873-15.873s-15.873,6.349-15.873,15.873v15.873h-63.495V361.83
					c0-9.524-6.349-15.873-15.873-15.873s-15.873,6.349-15.873,15.873v15.873h-47.624c-9.524,0-15.873,6.349-15.873,15.872v571.449
					v126.99c0,9.523,6.349,15.873,15.873,15.873h253.977h79.368h253.978h79.367h253.977c9.523,0,15.873-6.35,15.873-15.873v-126.99
					V393.575C1475.258,384.051,1468.907,377.703,1459.383,377.703z M1443.511,409.45v539.701h-222.231V409.45H1443.511z
					 M554.589,409.45h222.229v539.701H554.589V409.45z M554.589,980.899h222.229v95.242H554.589V980.899z M808.567,965.024V393.575
					V250.713h380.966v142.862v571.449v111.115h-47.62V933.277c0-9.523-6.349-15.873-15.873-15.873H872.062
					c-9.524,0-15.873,6.35-15.873,15.873v142.862h-47.62V965.024H808.567z M887.934,949.151h95.242v126.99h-95.242V949.151z
					 M1014.924,1076.139v-126.99h95.242v126.99H1014.924z M1443.511,1076.139h-222.231v-95.242h222.231V1076.139z"/>
				<path fill="#FF5752" d="M903.809,425.322h31.747c17.461,0,31.747-14.286,31.747-31.748v-31.747
					c0-17.461-14.286-31.748-31.747-31.748h-31.747c-17.461,0-31.747,14.286-31.747,31.748v31.747
					C872.062,411.037,886.347,425.322,903.809,425.322z M903.809,361.828h31.747v31.747h-31.747V361.828z"/>
				<path fill="#FF5752" d="M1062.543,425.322h31.748c17.461,0,31.747-14.286,31.747-31.748v-31.747
					c0-17.461-14.286-31.748-31.747-31.748h-31.748c-17.461,0-31.747,14.286-31.747,31.748v31.747
					C1030.796,411.037,1045.082,425.322,1062.543,425.322z M1062.543,361.828h31.748v31.747h-31.748V361.828z"/>
				<path fill="#FF5752" d="M903.809,552.312h31.747c17.461,0,31.747-14.286,31.747-31.747v-31.747
					c0-17.462-14.286-31.748-31.747-31.748h-31.747c-17.461,0-31.747,14.286-31.747,31.748v31.747
					C872.062,538.026,886.347,552.312,903.809,552.312z M903.809,488.818h31.747v31.747h-31.747V488.818z"/>
				<path fill="#FF5752" d="M1062.543,552.312h31.748c17.461,0,31.747-14.286,31.747-31.747v-31.747
					c0-17.462-14.286-31.748-31.747-31.748h-31.748c-17.461,0-31.747,14.286-31.747,31.748v31.747
					C1030.796,538.026,1045.082,552.312,1062.543,552.312z M1062.543,488.818h31.748v31.747h-31.748V488.818z"/>
				<path fill="#FF5752" d="M903.809,679.299h31.747c17.461,0,31.747-14.286,31.747-31.747v-31.747
					c0-17.462-14.286-31.748-31.747-31.748h-31.747c-17.461,0-31.747,14.286-31.747,31.748v31.747
					C872.062,665.014,886.347,679.299,903.809,679.299z M903.809,615.805h31.747v31.747h-31.747V615.805z"/>
				<path fill="#FF5752" d="M1062.543,679.299h31.748c17.461,0,31.747-14.286,31.747-31.747v-31.747
					c0-17.462-14.286-31.748-31.747-31.748h-31.748c-17.461,0-31.747,14.286-31.747,31.748v31.747
					C1030.796,665.014,1045.082,679.299,1062.543,679.299z M1062.543,615.805h31.748v31.747h-31.748V615.805z"/>
				<path fill="#FF5752" d="M903.809,806.29h31.747c17.461,0,31.747-14.286,31.747-31.748v-31.747
					c0-17.461-14.286-31.748-31.747-31.748h-31.747c-17.461,0-31.747,14.287-31.747,31.748v31.747
					C872.062,792.003,886.347,806.29,903.809,806.29z M903.809,742.794h31.747v31.747h-31.747V742.794z"/>
				<path fill="#FF5752" d="M1062.543,806.29h31.748c17.461,0,31.747-14.286,31.747-31.748v-31.747
					c0-17.461-14.286-31.748-31.747-31.748h-31.748c-17.461,0-31.747,14.287-31.747,31.748v31.747
					C1030.796,792.003,1045.082,806.29,1062.543,806.29z M1062.543,742.794h31.748v31.747h-31.748V742.794z"/>
				<path fill="#FF5752" d="M1316.521,536.438h31.747c17.461,0,31.747-14.286,31.747-31.748v-31.747
					c0-17.461-14.286-31.748-31.747-31.748h-31.747c-17.462,0-31.748,14.286-31.748,31.748v31.747
					C1284.773,522.151,1299.06,536.438,1316.521,536.438z M1316.521,472.943h31.747v31.747h-31.747V472.943z"/>
				<path fill="#FF5752" d="M1316.521,663.427h31.747c17.461,0,31.747-14.286,31.747-31.748v-31.747
					c0-17.461-14.286-31.747-31.747-31.747h-31.747c-17.462,0-31.748,14.286-31.748,31.747v31.747
					C1284.773,649.141,1299.06,663.427,1316.521,663.427z M1316.521,599.932h31.747v31.747h-31.747V599.932z"/>
				<path fill="#FF5752" d="M1316.521,790.415h31.747c17.461,0,31.747-14.286,31.747-31.747V726.92
					c0-17.461-14.286-31.748-31.747-31.748h-31.747c-17.462,0-31.748,14.286-31.748,31.748v31.747
					C1284.773,776.128,1299.06,790.415,1316.521,790.415z M1316.521,726.92h31.747v31.747h-31.747V726.92z"/>
				<path fill="#FF5752" d="M1316.521,917.404h31.747c17.461,0,31.747-14.286,31.747-31.747v-31.748
					c0-17.461-14.286-31.747-31.747-31.747h-31.747c-17.462,0-31.748,14.286-31.748,31.747v31.748
					C1284.773,903.118,1299.06,917.404,1316.521,917.404z M1316.521,853.909h31.747v31.748h-31.747V853.909z"/>
				<path fill="#FF5752" d="M681.577,441.197h-31.745c-17.461,0-31.748,14.286-31.748,31.748v31.747
					c0,17.461,14.286,31.748,31.748,31.748h31.747c17.461,0,31.748-14.286,31.748-31.748v-31.747
					C713.324,455.483,699.039,441.197,681.577,441.197z M681.577,504.69h-31.745v-31.747h31.747v31.747H681.577z"/>
				<path fill="#FF5752" d="M681.577,568.185h-31.745c-17.461,0-31.748,14.286-31.748,31.747v31.747
					c0,17.462,14.286,31.748,31.748,31.748h31.747c17.461,0,31.748-14.286,31.748-31.748v-31.747
					C713.324,582.471,699.039,568.185,681.577,568.185z M681.577,631.679h-31.745v-31.747h31.747v31.747H681.577z"/>
				<path fill="#FF5752" d="M681.577,695.174h-31.745c-17.461,0-31.748,14.286-31.748,31.747v31.748
					c0,17.461,14.286,31.748,31.748,31.748h31.747c17.461,0,31.748-14.286,31.748-31.748V726.92
					C713.324,709.46,699.039,695.174,681.577,695.174z M681.577,758.667h-31.745V726.92h31.747v31.748H681.577z"/>
				<path fill="#FF5752" d="M681.577,822.162h-31.745c-17.461,0-31.748,14.286-31.748,31.747v31.748
					c0,17.461,14.286,31.747,31.748,31.747h31.747c17.461,0,31.748-14.286,31.748-31.747v-31.748
					C713.324,836.448,699.039,822.162,681.577,822.162z M681.577,885.657h-31.745v-31.748h31.747v31.748H681.577z"/>
			</g>
		</g>
	</g>
</g>
<g id="airport" display="none">
	<g display="inline">
		<g>
			<path fill="#FF5752" d="M1429.511,367.231c9.282-23.041,8.008-48.865-3.951-71.616c-18.762-32.021-57.749-46.541-92.816-34.738
				c-57.161,19.167-109.819,51.976-152.158,94.788L769.797,766.452c-0.827,0.827-1.575,1.732-2.245,2.719L619.778,987.628
				c-18.458,24.419-16.03,59.117,5.579,80.726c0.014,0.015,0.041,0.041,0.066,0.067c21.636,21.635,56.333,24.039,79.938,6.158
				l219.243-148.353c0.985-0.643,1.903-1.403,2.732-2.231l410.814-410.814C1379.137,472.011,1410.841,421.243,1429.511,367.231z
				 M902.354,896.463l-218.561,147.931c-9.701,7.339-23.513,6.368-32.151-2.271c-8.625-8.625-9.584-22.424-1.667-32.887
				l147.353-217.774l409.591-409.591c38.348-38.767,85.952-68.438,137.665-85.781c18.513-6.223,39.136,1.508,48.521,17.538
				c6.458,12.315,7.194,26.811,1.654,40.567c-17.185,49.638-45.857,95.534-82.893,132.753L902.354,896.463L902.354,896.463z"/>
		</g>
	</g>
	<g display="inline">
		<g>
			<path fill="#FF5752" d="M1063.506,512.443c-1.604-6.353-6.461-11.396-12.708-13.233L565.045,354.8
				c-6.537-1.943-13.6-0.157-18.417,4.66l-78.77,78.771c-4.307,4.306-6.223,10.422-5.146,16.436
				c0.696,3.769,2.508,7.182,5.147,9.821c1.549,1.549,3.375,2.848,5.434,3.781l433.237,196.925
				c7.049,3.192,15.346,1.694,20.82-3.781l131.283-131.283C1063.255,525.508,1065.106,518.799,1063.506,512.443z M910.192,626.057
				L513.057,445.543l52.001-52.001L1010.32,525.93L910.192,626.057z"/>
		</g>
	</g>
	<g display="inline">
		<g>
			<path fill="#FF5752" d="M1338.989,1128.744l-144.411-485.75c-1.877-6.262-6.879-11.107-13.234-12.708
				c-6.329-1.602-13.05,0.237-17.684,4.871L1032.375,766.44c-5.475,5.475-6.996,13.771-3.793,20.809l196.926,433.236
				c0.96,2.062,2.245,3.898,3.795,5.449c2.64,2.638,6.041,4.463,9.794,5.117c6,1.09,12.143-0.825,16.448-5.131l78.77-78.771
				C1339.135,1142.332,1340.921,1135.269,1338.989,1128.744z M1248.246,1180.731l-180.514-397.134l100.143-100.144l132.373,445.277
				L1248.246,1180.731z"/>
		</g>
	</g>
	<g display="inline">
		<g>
			<path fill="#FF5752" d="M927.337,398.858c-21.714-21.714-57.058-21.714-78.772,0l-39.386,39.386l26.256,26.256l39.386-39.386
				c7.234-7.234,19.023-7.233,26.256,0.001c7.232,7.232,7.233,19.022,0,26.256l-13.128,13.128l26.255,26.256l13.128-13.128
				C949.052,455.914,949.051,420.572,927.337,398.858z"/>
		</g>
	</g>
	<g display="inline">
		<g>
			<path fill="#FF5752" d="M743.553,346.33c-21.713-21.714-57.057-21.714-78.771,0l-39.386,39.386l26.256,26.257l39.386-39.386
				c7.232-7.232,19.01-7.221,26.243,0.013c7.232,7.233,7.247,19.008,0.012,26.243l26.256,26.256
				C765.268,403.388,765.268,368.045,743.553,346.33z"/>
		</g>
	</g>
	<g display="inline">
		<g>
			<path fill="#FF5752" d="M1294.931,766.452c-21.713-21.713-57.057-21.713-78.771,0.001l-13.127,13.128l26.256,26.256
				l13.128-13.128c7.234-7.234,19.009-7.247,26.255,0c7.248,7.247,7.233,19.023,0,26.256l-39.385,39.385l26.257,26.256
				l39.385-39.385C1316.646,823.508,1316.646,788.167,1294.931,766.452z"/>
		</g>
	</g>
	<g display="inline">
		<g>
			<path fill="#FF5752" d="M1347.459,950.235c-21.715-21.714-57.057-21.714-78.772,0l26.257,26.256
				c7.233-7.232,18.997-7.233,26.244,0.014c7.246,7.247,7.246,19.008,0.012,26.243l-39.387,39.386l26.258,26.255l39.386-39.386
				C1369.173,1007.293,1369.173,971.95,1347.459,950.235z"/>
		</g>
	</g>
	<g display="inline">
		<g>
			<path fill="#FF5752" d="M649.291,987.626L483.336,869.091l29.578-29.579l199.867,49.968l9.004-36.025L511.733,800.94
				c-6.315-1.589-12.997,0.263-17.619,4.884l-52.514,52.514c-3.86,3.861-5.829,9.243-5.369,14.665
				c0.368,4.411,2.285,8.508,5.37,11.592c0.709,0.709,1.497,1.365,2.312,1.969l183.797,131.287L649.291,987.626z"/>
		</g>
	</g>
	<g display="inline">
		<g>
			<path fill="#FF5752" d="M892.836,1182.044l-52.514-210.053l-36.023,9.007l49.968,199.867l-29.565,29.564L706.152,1044.46
				l-30.209,21.597l131.285,183.797c0.604,0.84,1.247,1.613,1.969,2.336c3.084,3.085,7.182,5.002,11.58,5.356
				c5.448,0.459,10.804-1.511,14.665-5.37l52.514-52.513C892.561,1195.055,894.411,1188.373,892.836,1182.044z"/>
		</g>
	</g>
	<g display="inline">
		<g>
			<path fill="#FF5752" d="M1342.652,410.659c8.562-17.145,4.57-37.652-8.467-51.344c-14.059-13.798-35.105-16.699-51.661-7.602
				l-35.184,17.329l16.409,33.32l35.907-17.71c2.823-1.535,6.251-1.077,8.429,1.076c2.206,2.206,2.745,5.553,1.38,8.311
				l-17.985,35.841l33.176,16.661L1342.652,410.659z"/>
		</g>
	</g>
</g>
<g id="events" display="none">
	<g display="inline">
		<path fill="#FF5752" d="M1467.706,292.048c-9.534-9.816-23.747-11.652-35.373-4.566l-161.273,98.327
			c-3.657,2.229-6.385,5.756-7.662,9.906l-5.924,19.25c-1.104,3.592-3.087,6.879-5.734,9.5L915.463,757.263
			c-7.035,0.089-12.484-1.724-16.169-5.486c-9.396-9.598-7.312-17.373-6.222-19.907c0.457-0.739,21.471-36.095,21.966-36.969
			c21.168-37.454,30.477-79.692,26.93-122.377c-5.62-67.481-25.088-156.768-85.923-198.907
			c-32.151-22.272-71.731-28.619-117.857-19.077c-25.861-3.841-54.72-0.886-86.39,8.918c-47.821,14.809-84.456,46.046-108.877,92.85
			c-75.265,144.244-12.271,394.543,2.524,447.932c-22.437,26.495-34.717,59.936-34.72,95.318
			c-0.002,38.993,14.862,75.653,41.852,103.229l96.332,98.418c27.855,28.457,64.444,42.687,101.035,42.687
			c36.591,0,73.179-14.229,101.035-42.687c8.384-8.565,15.686-18.148,21.715-28.5c18.045-24.453,32.082-58.61,41.72-101.536
			c5.661-25.145,23.172-45.904,46.838-55.532c27.24-11.077,64.992-30.083,81.742-47.196c15.337-15.67,22.076-31.677,21.204-50.374
			c-0.773-16.506-8.454-30.715-20.547-38.01c-10.33-6.235-22.779-6.535-34.277-0.767c-1.844,0.939-3.393,1.701-4.66,2.275
			c-24.929,11.603-41.821,13.146-50.208,4.576c-11.145-11.386,3.181-31.663,5.49-34.77l353.336-369.795l12.99-13.271
			c10.246-10.467,26.915-10.464,37.16,0c3.764,3.848,9.05,5.712,14.342,5.065c5.289-0.65,9.992-3.745,12.757-8.396l81.313-136.758
			C1478.924,316.403,1477.241,301.866,1467.706,292.048z M1270.803,454.961l9.85,10.064l-379.16,396.816l-20.579-21.024
			L1270.803,454.961z M907.389,575.525c1.784,21.464-0.388,42.801-6.272,63.22c-5.689-4.686-12.329-7.883-19.404-9.335
			c0.53-48.776-4.876-175.103-70.709-238.829c9.199,2.865,17.745,6.96,25.567,12.381
			C863.902,421.892,898.372,467.198,907.389,575.525z M631.61,853.921c-13.375-57.382-30.839-151.802-27.347-242.308
			c4.662-120.76,45.006-193.751,119.914-216.944c4.879-1.51,9.647-2.789,14.339-3.916c15.665,3.16,29.629,9.609,41.754,19.45
			c65.691,53.295,67.44,188.195,66.555,226.306c-38.01,20.618-66.839,60.405-87.896,121.227
			c-12.912,37.267-41.525,66.089-78.492,79.072L631.61,853.921z M573.545,472.989c16.004-30.676,37.483-52.534,65.207-66.348
			c-14.077,14.524-26.122,31.784-35.991,51.815c-19.666,39.915-30.826,90.975-33.172,151.757
			c-3.708,96.067,15.001,195.607,28.912,254.696c-2.205,0.938-16.826,8.27-23.97,13.083
			C556.057,804.824,510.994,592.863,573.545,472.989z M929.963,911.211c19.678,20.108,49.669,20.986,88.971,2.695
			c1.463-0.662,3.521-1.66,5.843-2.848c0.761-0.381,1.224-0.466,1.167-0.501c0.95,0.411,3.325,3.645,3.586,9.204
			c0.286,6.093-0.859,13.172-11.076,23.61c-10.22,10.44-39.672,26.978-70.038,39.328c-34.254,13.937-59.608,44.037-67.824,80.534
			c-8.458,37.675-20.835,68.227-35.803,88.396c-0.546,0.688-1.04,1.423-1.479,2.188c-4.639,8.115-10.313,15.624-16.868,22.318
			c-42.177,43.091-110.812,43.091-152.993,0l-94.994-97.052c-20.63-21.075-32.97-49.496-33.025-79.305
			c-0.054-29.603,11.204-57.44,31.688-78.366c8.509-8.694,18.34-15.85,29.218-21.268c0.067-0.033,0.134-0.066,0.199-0.101
			c7.785-3.818,33.537-11.609,33.537-11.609l51.638-18.098c47.046-16.522,83.471-53.252,99.938-100.778
			c18.532-53.524,42.809-87.336,74.06-103.12c0.435-0.22,0.87-0.435,1.307-0.648c2.603-1.264,5.513-1.744,8.368-1.34
			c0.706,0.1,0.995,0.187,1.789,0.452c2.69,0.9,4.139,3.349,4.875,4.566c0.145,0.239,0.328,0.562,0.522,0.96
			c1.875,3.813,1.528,8.389-0.68,12.007c-0.336,0.55-0.673,1.096-1.016,1.643c-11.549,15.385-17.329,28.31-18.813,31.879
			c-1.414,2.942-4.29,10.042-4.584,19.559c-0.324,10.468,2.414,26.134,17.287,41.33c3.54,3.614,7.502,6.604,11.823,9l-42.19,41.753
			c-1.756,1.738-3.257,3.766-4.194,6.073c-2.818,6.928-1.143,14.52,3.713,19.478l45.464,46.445
			c3.255,3.325,7.667,5.193,12.268,5.193h0.105c4.605,0,9.018-1.898,12.236-5.266l4.919-5.148
			C921.194,900.213,924.764,905.9,929.963,911.211z M1370.369,430.68c-21.165-9.908-46.771-6.8-65.144,9.308l-14.506-14.82
			l3.808-12.374l135.66-82.711L1370.369,430.68z"/>
		<path fill="#FF5752" d="M703.647,986.5c-6.776-6.923-17.763-6.923-24.538,0c-6.775,6.924-6.775,18.149,0,25.069l55.204,56.398
			c3.387,3.461,7.829,5.193,12.269,5.193c4.44,0,8.882-1.729,12.269-5.193c6.776-6.922,6.776-18.148,0-25.068L703.647,986.5z"/>
		<path fill="#FF5752" d="M764.532,937.565c-6.776-6.923-17.763-6.923-24.537,0c-6.777,6.923-6.777,18.148,0,25.069l42.215,43.129
			c3.387,3.46,7.828,5.192,12.269,5.192c4.439,0,8.882-1.729,12.269-5.192c6.776-6.923,6.776-18.148,0-25.069L764.532,937.565z"/>
		<path fill="#FF5752" d="M830.281,870.393c-6.776-6.922-17.763-6.922-24.538,0c-6.776,6.924-6.776,18.148,0,25.069l42.216,43.129
			c3.387,3.46,7.829,5.194,12.269,5.194s8.882-1.731,12.269-5.194c6.776-6.923,6.776-18.148,0-25.069L830.281,870.393z"/>
	</g>
</g>
<g id="food">
	<g>
		<g>
			<g>
				<path fill="#FF5752" d="M1448.226,688.774V477.419c0-26.891-21.883-48.773-48.774-48.773h-32.516
					c-12.535,0-23.867,4.893-32.516,12.681c-8.65-7.804-19.981-12.681-32.517-12.681h-32.517c-12.535,0-23.866,4.893-32.516,12.681
					c-8.649-7.804-19.981-12.681-32.516-12.681h-32.517c-26.891,0-48.774,21.883-48.774,48.773v208.624
					c-37.507-25.997-92.248-48.124-172.4-57.489l25.606-179.261c0.309-2.163,0.472-4.357,0.472-6.552
					c0-25.704-20.908-46.612-46.612-46.612H781.646V249.807c0-8.958,7.299-16.258,16.258-16.258h130.064
					c26.891,0,48.774-21.883,48.774-48.774c0-26.891-21.884-48.774-48.774-48.774H781.646c-53.798,0-97.549,43.75-97.549,97.548
					v162.581H535.612c-25.704,0-46.612,20.908-46.612,46.612c0,2.194,0.163,4.389,0.472,6.601l39.182,274.241
					C490.008,769.609,489,815.002,489,818.839c0,28.354,18.339,52.253,43.686,61.146c-7.04,10.389-11.169,22.924-11.169,36.401
					c0,17.332,6.91,32.988,17.998,44.661C509.437,977.68,489,1009.709,489,1046.451c0,53.798,43.75,97.549,97.548,97.549h487.742
					h32.517H1497V802.581v-16.259v-48.773C1497,710.657,1475.116,688.774,1448.226,688.774z M1350.678,477.419
					c0-8.958,7.3-16.258,16.258-16.258h32.516c8.959,0,16.259,7.3,16.259,16.258v211.355h-65.032V477.419z M1253.129,477.419
					c0-8.958,7.3-16.258,16.258-16.258h32.517c8.958,0,16.258,7.3,16.258,16.258v211.355h-65.032V477.419z M1155.581,477.419
					c0-8.958,7.3-16.258,16.258-16.258h32.517c8.957,0,16.258,7.3,16.258,16.258v211.355h-65.032V477.419z M895.451,168.516h32.517
					c8.958,0,16.258,7.3,16.258,16.258c0,8.958-7.3,16.258-16.258,16.258h-32.517V168.516z M830.419,168.516h32.516v32.516h-32.516
					V168.516z M716.613,233.548c0-35.865,29.167-65.032,65.032-65.032h16.258v32.516c-26.891,0-48.774,21.883-48.774,48.774v146.322
					h-32.516V233.548z M524.003,461.161l-2.341-16.372c-0.098-0.683-0.146-1.366-0.146-2.048c0-7.771,6.324-14.096,14.096-14.096
					h148.485h97.549H930.13c7.771,0,14.096,6.324,14.096,14.096c0,0.683-0.049,1.365-0.13,2l-2.357,16.42h-46.287v32.517h41.637
					l-9.283,65.032H537.937l-9.283-65.032h334.282v-32.517H524.003z M923.171,591.226l-4.91,34.402
					c-17.413-1.203-35.751-1.886-55.326-1.886h-32.516c-141.673,0-224.426,32.987-272.924,71.844l-14.908-104.36H923.171z
					 M521.516,818.839c0-1.626,3.528-162.581,308.903-162.581h32.516c303.262,0,308.822,156.045,308.903,162.581
					c0,17.933-14.584,32.516-32.517,32.516h-16.258h-16.258H586.548h-32.516C536.1,851.354,521.516,836.771,521.516,818.839z
					 M586.548,948.903c-17.933,0-32.516-14.584-32.516-32.517s14.583-32.516,32.516-32.516h520.258
					c17.933,0,32.516,14.583,32.516,32.516s-14.583,32.517-32.516,32.517H586.548z M1038.945,981.419l-66.707,77.828
					l-177.912-77.828H1038.945z M1106.807,1111.484h-32.517H586.548c-35.865,0-65.032-29.167-65.032-65.033
					c0-35.865,29.167-65.032,65.032-65.032h126.667l268.031,117.27l100.523-117.27h25.038c35.865,0,65.032,29.167,65.032,65.032
					C1171.839,1082.317,1142.672,1111.484,1106.807,1111.484z M1153.857,961.048c11.071-11.673,17.981-27.329,17.981-44.661
					c0-11.9-3.447-22.907-9.04-32.516h236.652v162.58h-195.096c0-11.413-2.082-22.322-5.691-32.516h103.239v-32.517h-122.586
					C1172.033,973.307,1163.466,966.364,1153.857,961.048z M1464.484,786.322h-32.517v32.517h32.517v292.646h-285.167
					c8.438-9.397,15.056-20.388,19.347-32.517h233.304V851.354h-236.652c5.593-9.608,9.04-20.615,9.04-32.516h195.096v-32.517
					h-200.607c-5.284-18.079-15.722-41.539-36.077-65.032h285.459c8.958,0,16.259,7.284,16.259,16.259V786.322z"/>
				<rect x="1334.42" y="981.419" fill="#FF5752" width="32.516" height="32.517"/>
				<rect x="700.354" y="688.774" fill="#FF5752" width="32.517" height="32.516"/>
				<rect x="765.387" y="721.29" fill="#FF5752" width="32.517" height="32.517"/>
				<rect x="830.419" y="688.774" fill="#FF5752" width="32.516" height="32.516"/>
				<rect x="927.968" y="737.549" fill="#FF5752" width="32.517" height="32.516"/>
				<rect x="1009.258" y="688.774" fill="#FF5752" width="32.517" height="32.516"/>
				<rect x="602.807" y="753.807" fill="#FF5752" width="32.516" height="32.516"/>
			</g>
		</g>
	</g>
</g>
<g id="Layer_6" display="none">
	<g display="inline">
		<g>
			<path fill="#FF5752" d="M1255.639,543.4H668.65c-34.675,0-62.891,28.217-62.891,62.892v41.927
				c0,149.598,82.64,285.277,215.633,354.08c10.273,5.283,22.934,1.299,28.26-9.015c5.283-10.273,1.299-22.934-9.016-28.26
				c-118.991-61.549-192.951-182.93-192.951-316.807V606.29c0-11.571,9.392-20.964,20.964-20.964h586.988
				c11.572,0,20.965,9.393,20.965,20.964v41.927c0,133.875-73.961,255.255-192.992,316.763c-10.314,5.324-14.298,17.987-9.016,28.26
				c3.732,7.212,11.069,11.362,18.658,11.362c3.27,0,6.54-0.755,9.601-2.349c133.036-68.762,215.677-204.398,215.677-354.038
				v-41.927C1318.531,571.618,1290.312,543.4,1255.639,543.4z"/>
		</g>
	</g>
	<g display="inline">
		<g>
			<path fill="#FF5752" d="M1442.762,975.592c-3.271-7.841-10.902-12.957-19.371-12.957H500.981c-8.469,0-16.1,5.116-19.37,12.957
				c-3.271,7.839-1.469,16.854,4.528,22.851l47.001,47.043c27.757,27.713,64.568,42.976,103.772,42.976h650.464
				c39.203,0,76.059-15.261,103.856-42.976l47.002-47.043C1444.229,992.447,1446.031,983.432,1442.762,975.592z M1361.549,1015.843
				c-19.789,19.788-46.162,30.69-74.128,30.69H636.913c-27.966,0-54.339-10.902-74.128-30.69l-11.236-11.236h821.236
				L1361.549,1015.843z"/>
		</g>
	</g>
	<g display="inline">
		<g>
			<path fill="#FF5752" d="M1445.697,642.392c-56.477-36.31-146.704,3.103-156.811,7.673c-10.523,4.821-15.219,17.232-10.398,27.798
				c4.821,10.565,17.191,15.219,27.799,10.399c20.209-9.182,85.029-30.943,116.727-10.525c14.298,9.183,21.299,27.002,21.299,54.338
				c0,83.938-169.305,134.672-234.67,147.166l-14.843,2.935c-11.362,2.222-18.742,13.249-16.519,24.612
				c1.971,9.979,10.732,16.896,20.543,16.896c1.343,0,2.684-0.126,4.066-0.418l14.717-2.893
				c10.984-2.097,268.632-52.618,268.632-188.297C1486.241,689.896,1472.574,659.75,1445.697,642.392z"/>
		</g>
	</g>
	<g display="inline">
		<g>
			<path fill="#FF5752" d="M1125.369,367.808c34.087-42.6,34.087-109.306,0-151.905c-7.254-9.056-20.377-10.566-29.475-3.27
				c-9.057,7.254-10.524,20.418-3.271,29.474c21.593,26.959,21.593,72.536-0.041,99.58c-34.128,42.599-34.128,109.306,0,151.905
				c4.15,5.198,10.229,7.883,16.394,7.883c4.569,0,9.223-1.51,13.082-4.613c9.056-7.255,10.523-20.461,3.27-29.475
				C1103.693,440.426,1103.693,394.852,1125.369,367.808z"/>
		</g>
	</g>
	<g display="inline">
		<g>
			<path fill="#FF5752" d="M999.42,367.808c34.127-42.6,34.127-109.306,0-151.905c-7.212-9.056-20.419-10.524-29.476-3.27
				c-9.056,7.254-10.524,20.461-3.271,29.474c21.635,26.959,21.635,72.536-0.041,99.58c-34.087,42.599-34.087,109.306,0,151.905
				c4.15,5.198,10.229,7.883,16.393,7.883c4.57,0,9.183-1.51,13.082-4.613c9.057-7.255,10.524-20.418,3.271-29.475
				C977.784,440.426,977.784,394.852,999.42,367.808z"/>
		</g>
	</g>
	<g display="inline">
		<g>
			<path fill="#FF5752" d="M873.803,367.849c34.087-42.6,34.087-109.306,0-151.905c-7.211-9.057-20.377-10.566-29.475-3.271
				c-9.015,7.211-10.481,20.418-3.27,29.433c21.593,26.959,21.593,72.536-0.042,99.58c-34.128,42.599-34.128,109.306,0,151.905
				c4.151,5.198,10.23,7.883,16.394,7.883c4.569,0,9.223-1.51,13.082-4.57c9.056-7.254,10.524-20.461,3.271-29.475
				C852.127,440.426,852.127,394.892,873.803,367.849z"/>
		</g>
	</g>
</g>
</svg>
